<svg width="136" height="40" viewBox="0 0 136 40" fill="none" xmlns="http://www.w3.org/2000/svg">
<circle cx="25.9571" cy="28.6714" r="7.05943" fill="#0F1928"/>
<path d="M11.1668 31.2685H6.11188V26.2136C6.11188 25.2337 5.31987 24.4454 4.34366 24.4454C3.36746 24.4454 2.57544 25.2337 2.57544 26.2136V33.0367C2.57544 34.0166 3.36746 34.805 4.34366 34.805H11.1668C12.1467 34.805 12.935 34.0166 12.935 33.0367C12.935 32.0569 12.1467 31.2685 11.1668 31.2685ZM11.1668 5.28773H4.34366C3.36746 5.28773 2.57544 6.07975 2.57544 7.05596V13.8791C2.57544 14.859 3.36746 15.6473 4.34366 15.6473C5.3206 15.6473 6.11188 14.859 6.11188 13.8791V8.82418H11.1668C12.1467 8.82418 12.935 8.03585 12.935 7.05596C12.935 6.07607 12.1467 5.28773 11.1668 5.28773ZM30.3081 5.28773H23.4849C22.505 5.28773 21.7167 6.07975 21.7167 7.05596C21.7167 8.0329 22.5087 8.82418 23.4849 8.82418H28.5398V13.8791C28.5398 14.859 29.3282 15.6473 30.3081 15.6473C31.288 15.6473 32.0763 14.859 32.0763 13.8791V7.05596C32.0763 6.07975 31.288 5.28773 30.3081 5.28773Z" fill="#009966"/>
<path fill-rule="evenodd" clip-rule="evenodd" d="M78.6992 25.2273L78.7055 21.3832C78.7055 17.3772 81.7865 14.1297 85.587 14.1297L89.4898 14.1297C93.2903 14.1297 96.3713 17.3772 96.3713 21.3832L96.3713 25.4818C96.3713 29.4877 93.2903 32.7352 89.4898 32.7352L85.587 32.7352C84.6647 32.7352 83.7848 32.544 82.981 32.1971L82.981 37.7432C82.981 38.3573 82.7732 38.9086 82.3595 39.3447C81.9458 39.7808 81.4227 39.9999 80.8401 39.9999C80.2575 39.9999 79.7345 39.7808 79.3208 39.3447C78.907 38.9086 78.6992 38.3573 78.6992 37.7432L78.6992 25.2273ZM85.587 28.222L89.4898 28.222C90.9255 28.222 92.0894 26.9951 92.0894 25.4818L92.0894 21.3832C92.0894 19.8698 90.9255 18.643 89.4898 18.643L85.587 18.643C84.1512 18.643 82.9873 19.8698 82.9873 21.3832L82.9873 25.4818C82.9873 26.9951 84.1512 28.222 85.587 28.222Z" fill="#0F1928"/>
<path fill-rule="evenodd" clip-rule="evenodd" d="M116.711 26.7443C116.7 26.7439 116.713 26.1745 116.713 26.1745V21.3827C116.713 17.3767 113.632 14.1293 109.831 14.1293H105.928C102.128 14.1293 99.0469 17.3767 99.0469 21.3827V25.4813C99.0469 29.4873 102.128 32.7348 105.928 32.7348H109.417C111.046 32.7348 111.922 31.5465 112.431 30.9953C112.431 30.9953 112.529 31.2437 112.723 31.5521C112.915 31.8593 113.141 32.1317 113.437 32.352C113.734 32.5724 114.119 32.7348 114.702 32.7348C115.285 32.7348 115.676 32.504 116.089 32.0679C116.503 31.6318 116.711 31.0805 116.711 30.4664V26.7443ZM109.831 18.6425H105.928C104.493 18.6425 103.329 19.8693 103.329 21.3827V25.4813C103.329 26.9947 104.493 28.2215 105.928 28.2215H109.831C111.267 28.2215 112.431 26.9947 112.431 25.4813V21.3827C112.431 19.8694 111.267 18.6425 109.831 18.6425Z" fill="#0F1928"/>
<path fill-rule="evenodd" clip-rule="evenodd" d="M121.431 14.1246C122.62 14.1247 123.584 15.0885 123.584 16.2774L123.584 22.8058C125.035 21.877 126.759 21.3385 128.61 21.3385L130.504 21.3386L130.504 16.2788C130.504 15.0899 131.467 14.126 132.656 14.1259C133.845 14.1258 134.809 15.0896 134.809 16.2785L134.81 30.6719C134.81 31.8608 133.846 32.8246 132.658 32.8247C131.469 32.8248 130.505 31.8611 130.505 30.6722L130.504 25.644L128.609 25.644C125.87 25.6439 123.643 27.8347 123.584 30.5596L123.584 30.6706C123.584 31.8595 122.62 32.8233 121.431 32.8233C121.364 32.8233 121.297 32.8202 121.231 32.8141C120.135 32.7136 119.277 31.7923 119.277 30.6705C119.277 30.6201 119.278 30.5697 119.279 30.5194L119.279 16.2773C119.279 15.0884 120.243 14.1246 121.431 14.1246Z" fill="#0F1928"/>
<path fill-rule="evenodd" clip-rule="evenodd" d="M56.2534 25.8195C56.0386 27.3028 54.762 28.4422 53.2192 28.4422L48.01 28.4422C46.8211 28.4422 45.8573 29.406 45.8573 30.5949C45.8573 31.7838 46.8211 32.7476 48.01 32.7476L53.2192 32.7476C57.2904 32.7476 60.5907 29.4473 60.5906 25.3761L60.5905 21.5134C60.5904 17.4424 57.2902 14.1422 53.2191 14.1422L48.01 14.1422C46.8211 14.1422 45.8573 15.106 45.8573 16.2949C45.8573 17.4838 46.8211 18.4476 48.01 18.4476L53.2191 18.4476C54.9124 18.4476 56.2851 19.8203 56.2851 21.5135L53.2814 21.5141C52.0925 21.5141 51.1287 22.4779 51.1287 23.6668C51.1287 24.8557 52.0925 25.8195 53.2814 25.8195L56.2534 25.8195Z" fill="#009966"/>
<path fill-rule="evenodd" clip-rule="evenodd" d="M64.7482 6.85828C65.9371 6.85828 66.9009 7.82206 66.9009 9.01096L66.9009 21.4922L68.4761 21.4921C68.4933 21.4921 68.5106 21.4921 68.5278 21.4923C70.1977 21.4652 71.543 20.1031 71.5431 18.4268L71.5431 16.2884C71.5431 15.0995 72.5069 14.1357 73.6959 14.1357C74.8848 14.1358 75.8486 15.0996 75.8485 16.2885L75.8485 18.4269C75.8485 20.4656 75.0208 22.311 73.6831 23.6454C75.0205 24.9798 75.8479 26.825 75.8479 28.8635L75.8479 30.5679C75.8479 31.7568 74.8841 32.7206 73.6951 32.7206C72.5062 32.7206 71.5424 31.7568 71.5424 30.5679L71.5424 28.8634C71.5425 27.1872 70.1972 25.8251 68.5275 25.7979C68.5108 25.798 68.4941 25.798 68.4774 25.798L66.9009 25.7981L66.9009 30.5849C66.9009 31.7738 65.9371 32.7376 64.7482 32.7376C63.5593 32.7376 62.5955 31.7738 62.5955 30.5849L62.5955 9.01096C62.5955 7.82207 63.5593 6.85828 64.7482 6.85828Z" fill="#0F1928"/>
</svg>
